<?xml version="1.0" encoding="UTF-8"?>
<svg version="1.1" xmlns="http://www.w3.org/2000/svg" width="795" height="231">
<path d="M0 0 C7.3705888 4.47791869 11.59517792 13.00375776 14.01171875 21.0078125 C14.97851562 21.03359375 15.9453125 21.059375 16.94140625 21.0859375 C28.55543755 21.5918953 37.28928422 23.37965641 45.96484375 31.59375 C50.21745556 36.60923492 53.59474632 42.68005178 54.41796875 49.25 C54.61390625 50.16007812 54.80984375 51.07015625 55.01171875 52.0078125 C56.87604147 53.16146379 56.87604147 53.16146379 59.01171875 54.0078125 C60.6796875 56.06640625 60.6796875 56.06640625 62.19921875 58.4453125 C62.70839844 59.22777344 63.21757813 60.01023437 63.7421875 60.81640625 C67.47142841 67.25364978 67.10248875 75.87846894 65.24609375 82.90625 C62.27109399 89.71522832 57.41783757 93.45730258 51.01171875 97.0078125 C47.93888586 98.03209013 45.8366405 98.13843346 42.61763 98.14825439 C40.93754097 98.15681961 40.93754097 98.15681961 39.22351074 98.16555786 C37.99386597 98.16667572 36.76422119 98.16779358 35.49731445 98.16894531 C34.20274826 98.17391022 32.90818207 98.17887512 31.5743866 98.18399048 C28.02042194 98.19710919 24.46647617 98.2035588 20.91249108 98.20800114 C18.69039357 98.21093368 16.4683012 98.21503891 14.24620628 98.21950531 C7.28901452 98.23318097 0.33183454 98.24284639 -6.62536973 98.2467072 C-14.64705581 98.25118348 -22.66857111 98.26871098 -30.69020528 98.2977078 C-36.89586314 98.3193584 -43.10147309 98.32941334 -49.3071683 98.33074832 C-53.01080664 98.33179425 -56.71428447 98.33765625 -60.41788292 98.35556793 C-64.55432786 98.37518321 -68.69041791 98.37074622 -72.8269043 98.36425781 C-74.04642792 98.3734726 -75.26595154 98.38268738 -76.52243042 98.3921814 C-85.60682294 98.34757355 -92.57484562 97.04756749 -99.44921875 90.75390625 C-104.51153323 85.01062054 -106.37703693 78.02583473 -106.265625 70.51171875 C-105.61777246 64.66279652 -103.60765235 59.10819195 -99.05078125 55.2578125 C-95.78280087 52.39629734 -94.95755698 49.35949482 -93.67578125 45.2578125 C-90.36719237 35.2474813 -84.39225727 28.63899148 -75.03125 23.84765625 C-70.42169092 21.95271323 -66.18375957 21.88454575 -61.23828125 21.9453125 C-60.54089844 21.94982422 -59.84351563 21.95433594 -59.125 21.95898438 C-57.41272322 21.9707123 -55.70049092 21.98864597 -53.98828125 22.0078125 C-53.36953125 20.63109375 -53.36953125 20.63109375 -52.73828125 19.2265625 C-47.57866056 8.10222016 -42.24702254 0.31260907 -30.265625 -4.14453125 C-19.35236666 -6.96714991 -9.86540635 -4.9230122 0 0 Z M-21.98828125 7.0078125 C-22.14296875 7.966875 -22.14296875 7.966875 -22.30078125 8.9453125 C-22.52765625 9.6259375 -22.75453125 10.3065625 -22.98828125 11.0078125 C-23.97828125 11.3378125 -24.96828125 11.6678125 -25.98828125 12.0078125 C-26.64828125 11.3478125 -27.30828125 10.6878125 -27.98828125 10.0078125 C-28.97828125 10.0078125 -29.96828125 10.0078125 -30.98828125 10.0078125 C-30.65828125 11.6578125 -30.32828125 13.3078125 -29.98828125 15.0078125 C-32.06381773 15.5612889 -33.83194089 16.0078125 -35.98828125 16.0078125 C-35.84390625 16.5646875 -35.69953125 17.1215625 -35.55078125 17.6953125 C-34.96058997 20.12165445 -34.46485225 22.55687595 -33.98828125 25.0078125 C-35.30828125 25.0078125 -36.62828125 25.0078125 -37.98828125 25.0078125 C-37.98828125 25.9978125 -37.98828125 26.9878125 -37.98828125 28.0078125 C-36.33828125 28.0078125 -34.68828125 28.0078125 -32.98828125 28.0078125 C-33.15328125 28.7503125 -33.31828125 29.4928125 -33.48828125 30.2578125 C-34.10753821 33.19787828 -34.10753821 33.19787828 -33.98828125 37.0078125 C-32.33828125 36.6778125 -30.68828125 36.3478125 -28.98828125 36.0078125 C-28.98828125 37.6578125 -28.98828125 39.3078125 -28.98828125 41.0078125 C-27.99828125 41.3378125 -27.00828125 41.6678125 -25.98828125 42.0078125 C-25.65828125 41.3478125 -25.32828125 40.6878125 -24.98828125 40.0078125 C-22.92578125 39.3828125 -22.92578125 39.3828125 -20.98828125 39.0078125 C-20.65828125 40.3278125 -20.32828125 41.6478125 -19.98828125 43.0078125 C-18.99828125 43.0078125 -18.00828125 43.0078125 -16.98828125 43.0078125 C-16.65828125 41.6878125 -16.32828125 40.3678125 -15.98828125 39.0078125 C-15.39015625 39.1728125 -14.79203125 39.3378125 -14.17578125 39.5078125 C-11.87483789 40.1192249 -11.87483789 40.1192249 -8.98828125 40.0078125 C-8.98828125 38.3578125 -8.98828125 36.7078125 -8.98828125 35.0078125 C-7.33828125 35.0078125 -5.68828125 35.0078125 -3.98828125 35.0078125 C-3.98828125 33.6878125 -3.98828125 32.3678125 -3.98828125 31.0078125 C-4.64828125 31.0078125 -5.30828125 31.0078125 -5.98828125 31.0078125 C-5.98828125 29.3578125 -5.98828125 27.7078125 -5.98828125 26.0078125 C-4.33828125 26.0078125 -2.68828125 26.0078125 -0.98828125 26.0078125 C-1.48328125 24.5228125 -1.48328125 24.5228125 -1.98828125 23.0078125 C-3.30828125 23.0078125 -4.62828125 23.0078125 -5.98828125 23.0078125 C-6.11328125 20.6328125 -6.11328125 20.6328125 -5.98828125 18.0078125 C-5.32828125 17.3478125 -4.66828125 16.6878125 -3.98828125 16.0078125 C-4.64828125 15.3478125 -5.30828125 14.6878125 -5.98828125 14.0078125 C-8.09648922 14.3263302 -8.09648922 14.3263302 -9.98828125 15.0078125 C-10.98828125 13.0078125 -10.98828125 13.0078125 -10.98828125 9.0078125 C-11.97828125 9.0078125 -12.96828125 9.0078125 -13.98828125 9.0078125 C-14.31828125 9.6678125 -14.64828125 10.3278125 -14.98828125 11.0078125 C-15.97828125 11.0078125 -16.96828125 11.0078125 -17.98828125 11.0078125 C-18.31828125 9.6878125 -18.64828125 8.3678125 -18.98828125 7.0078125 C-19.97828125 7.0078125 -20.96828125 7.0078125 -21.98828125 7.0078125 Z M-61.98828125 30.0078125 C-62.31828125 32.3178125 -62.64828125 34.6278125 -62.98828125 37.0078125 C-65.17578125 37.7578125 -65.17578125 37.7578125 -67.98828125 38.0078125 C-70.80078125 36.0703125 -70.80078125 36.0703125 -72.98828125 34.0078125 C-73.97828125 34.9978125 -74.96828125 35.9878125 -75.98828125 37.0078125 C-75.32828125 38.9878125 -74.66828125 40.9678125 -73.98828125 43.0078125 C-76.56041259 44.62730261 -77.66497284 45.05190001 -80.73828125 44.6328125 C-81.85203125 44.3234375 -81.85203125 44.3234375 -82.98828125 44.0078125 C-83.64828125 45.3278125 -84.30828125 46.6478125 -84.98828125 48.0078125 C-84.32828125 48.3790625 -83.66828125 48.7503125 -82.98828125 49.1328125 C-80.98828125 51.0078125 -80.98828125 51.0078125 -80.73828125 54.1953125 C-80.82078125 55.1234375 -80.90328125 56.0515625 -80.98828125 57.0078125 C-83.29828125 57.0078125 -85.60828125 57.0078125 -87.98828125 57.0078125 C-87.98828125 58.6578125 -87.98828125 60.3078125 -87.98828125 62.0078125 C-85.34828125 62.3378125 -82.70828125 62.6678125 -79.98828125 63.0078125 C-79.73828125 65.3203125 -79.73828125 65.3203125 -79.98828125 68.0078125 C-81.98828125 69.8203125 -81.98828125 69.8203125 -83.98828125 71.0078125 C-83.65828125 72.6578125 -83.32828125 74.3078125 -82.98828125 76.0078125 C-80.34828125 75.3478125 -77.70828125 74.6878125 -74.98828125 74.0078125 C-73.82887087 77.48604365 -74.28007241 79.46676828 -74.98828125 83.0078125 C-73.15127336 83.78023519 -73.15127336 83.78023519 -70.98828125 84.0078125 C-69.17528633 82.77827234 -69.17528633 82.77827234 -67.98828125 81.0078125 C-67.98828125 80.3478125 -67.98828125 79.6878125 -67.98828125 79.0078125 C-66.33828125 79.6678125 -64.68828125 80.3278125 -62.98828125 81.0078125 C-62.65828125 83.3178125 -62.32828125 85.6278125 -61.98828125 88.0078125 C-60.33828125 88.0078125 -58.68828125 88.0078125 -56.98828125 88.0078125 C-56.65828125 85.3678125 -56.32828125 82.7278125 -55.98828125 80.0078125 C-53.01828125 79.5128125 -53.01828125 79.5128125 -49.98828125 79.0078125 C-49.55515625 79.966875 -49.55515625 79.966875 -49.11328125 80.9453125 C-48.16004674 83.15987329 -48.16004674 83.15987329 -45.98828125 84.0078125 C-44.99828125 83.0178125 -44.00828125 82.0278125 -42.98828125 81.0078125 C-43.64828125 79.0278125 -44.30828125 77.0478125 -44.98828125 75.0078125 C-41.66293368 73.89936331 -39.3664555 74.16326894 -35.98828125 75.0078125 C-35.32828125 73.6878125 -34.66828125 72.3678125 -33.98828125 71.0078125 C-34.64828125 70.5953125 -35.30828125 70.1828125 -35.98828125 69.7578125 C-36.64828125 69.1803125 -37.30828125 68.6028125 -37.98828125 68.0078125 C-37.98828125 66.6878125 -37.98828125 65.3678125 -37.98828125 64.0078125 C-35.67828125 63.3478125 -33.36828125 62.6878125 -30.98828125 62.0078125 C-30.98828125 60.3578125 -30.98828125 58.7078125 -30.98828125 57.0078125 C-33.29828125 57.0078125 -35.60828125 57.0078125 -37.98828125 57.0078125 C-38.17578125 53.6328125 -38.17578125 53.6328125 -37.98828125 50.0078125 C-36.99828125 49.3478125 -36.00828125 48.6878125 -34.98828125 48.0078125 C-35.48328125 46.0278125 -35.48328125 46.0278125 -35.98828125 44.0078125 C-38.29828125 44.3378125 -40.60828125 44.6678125 -42.98828125 45.0078125 C-44.60777136 42.43568116 -45.03236876 41.33112091 -44.61328125 38.2578125 C-44.40703125 37.5153125 -44.20078125 36.7728125 -43.98828125 36.0078125 C-45.30828125 35.3478125 -46.62828125 34.6878125 -47.98828125 34.0078125 C-48.38015625 34.6678125 -48.77203125 35.3278125 -49.17578125 36.0078125 C-50.98828125 38.0078125 -50.98828125 38.0078125 -53.67578125 38.2578125 C-54.43890625 38.1753125 -55.20203125 38.0928125 -55.98828125 38.0078125 C-56.31828125 35.3678125 -56.64828125 32.7278125 -56.98828125 30.0078125 C-58.63828125 30.0078125 -60.28828125 30.0078125 -61.98828125 30.0078125 Z M18.01171875 30.0078125 C16.65732207 32.71660585 16.94670424 35.01714518 17.01171875 38.0078125 C14.19921875 38.2578125 14.19921875 38.2578125 11.01171875 38.0078125 C9.13671875 36.0078125 9.13671875 36.0078125 8.01171875 34.0078125 C6.03171875 34.9978125 6.03171875 34.9978125 4.01171875 36.0078125 C4.19734375 37.1215625 4.38296875 38.2353125 4.57421875 39.3828125 C5.01171875 43.0078125 5.01171875 43.0078125 4.01171875 45.0078125 C1.37171875 44.6778125 -1.26828125 44.3478125 -3.98828125 44.0078125 C-4.31828125 45.3278125 -4.64828125 46.6478125 -4.98828125 48.0078125 C-3.66828125 48.9978125 -2.34828125 49.9878125 -0.98828125 51.0078125 C-1.31828125 52.6578125 -1.64828125 54.3078125 -1.98828125 56.0078125 C-3.96828125 56.3378125 -5.94828125 56.6678125 -7.98828125 57.0078125 C-7.98828125 58.6578125 -7.98828125 60.3078125 -7.98828125 62.0078125 C-5.67828125 62.3378125 -3.36828125 62.6678125 -0.98828125 63.0078125 C-0.65828125 64.9878125 -0.32828125 66.9678125 0.01171875 69.0078125 C-0.62765625 69.2965625 -1.26703125 69.5853125 -1.92578125 69.8828125 C-4.14034204 70.83604701 -4.14034204 70.83604701 -4.98828125 73.0078125 C-3.99828125 73.9978125 -3.00828125 74.9878125 -1.98828125 76.0078125 C-0.00828125 75.3478125 1.97171875 74.6878125 4.01171875 74.0078125 C4.85626231 77.38598675 5.12016794 79.68246493 4.01171875 83.0078125 C5.74747524 83.88217668 5.74747524 83.88217668 8.01171875 84.0078125 C9.69876068 82.70035501 11.3653191 81.36609221 13.01171875 80.0078125 C14.33171875 80.0078125 15.65171875 80.0078125 17.01171875 80.0078125 C16.99109375 80.9565625 16.97046875 81.9053125 16.94921875 82.8828125 C16.78620049 85.91447533 16.78620049 85.91447533 18.01171875 88.0078125 C19.33171875 88.0078125 20.65171875 88.0078125 22.01171875 88.0078125 C22.34171875 85.3678125 22.67171875 82.7278125 23.01171875 80.0078125 C25.76171875 79.7578125 25.76171875 79.7578125 29.01171875 80.0078125 C31.38671875 82.0078125 31.38671875 82.0078125 33.01171875 84.0078125 C34.00171875 83.3478125 34.99171875 82.6878125 36.01171875 82.0078125 C35.51671875 78.5428125 35.51671875 78.5428125 35.01171875 75.0078125 C38.4899499 73.84840212 40.47067453 74.29960366 44.01171875 75.0078125 C44.34171875 73.6878125 44.67171875 72.3678125 45.01171875 71.0078125 C44.35171875 70.6159375 43.69171875 70.2240625 43.01171875 69.8203125 C41.01171875 68.0078125 41.01171875 68.0078125 40.76171875 65.3203125 C40.84421875 64.5571875 40.92671875 63.7940625 41.01171875 63.0078125 C43.65171875 62.6778125 46.29171875 62.3478125 49.01171875 62.0078125 C49.01171875 60.3578125 49.01171875 58.7078125 49.01171875 57.0078125 C46.70171875 56.6778125 44.39171875 56.3478125 42.01171875 56.0078125 C41.32421875 53.6953125 41.32421875 53.6953125 41.01171875 51.0078125 C42.01171875 50.0078125 43.01171875 49.0078125 44.01171875 48.0078125 C43.78128011 45.35315201 43.78128011 45.35315201 43.01171875 43.0078125 C40.70171875 43.6678125 38.39171875 44.3278125 36.01171875 45.0078125 C34.88671875 43.3203125 34.88671875 43.3203125 34.01171875 41.0078125 C34.88671875 38.2578125 34.88671875 38.2578125 36.01171875 36.0078125 C33.53671875 35.0178125 33.53671875 35.0178125 31.01171875 34.0078125 C30.61984375 34.6678125 30.22796875 35.3278125 29.82421875 36.0078125 C28.01171875 38.0078125 28.01171875 38.0078125 25.32421875 38.2578125 C24.56109375 38.1753125 23.79796875 38.0928125 23.01171875 38.0078125 C22.68171875 35.3678125 22.35171875 32.7278125 22.01171875 30.0078125 C20.69171875 30.0078125 19.37171875 30.0078125 18.01171875 30.0078125 Z " fill="#41378D" transform="translate(685.98828125,49.9921875)"/>
<path d="M0 0 C58.0183642 0 58.0183642 0 66.3828125 7.26953125 C71.23327357 12.45975891 74.20721358 17.7086721 74 25 C73.34154899 34.36920913 70.30639778 40.19434615 63.3125 46.375 C61.55845268 47.60757379 59.78375751 48.81082832 58 50 C58.86625 50.474375 59.7325 50.94875 60.625 51.4375 C66.26722213 55.24800547 69.84523806 61.09025559 71.3125 67.6875 C72.15686074 73.02118469 72.41481107 78.41065703 72.65625 83.80078125 C72.99304892 86.93530758 73.58089737 89.1970207 75 92 C75.70125 92.495 76.4025 92.99 77.125 93.5 C77.74375 93.995 78.3625 94.49 79 95 C79.25 97.6875 79.25 97.6875 79 100 C74.23170934 101.97709613 71.02739018 102.18829222 66 101 C62.30245583 99.23526301 60.17088269 97.45556943 58 94 C57.33984375 91.1875 57.33984375 91.1875 56.9375 88 C56.77894531 86.85273438 56.62039063 85.70546875 56.45703125 84.5234375 C56.30621094 83.36070312 56.15539062 82.19796875 56 81 C54.60749836 69.39715915 54.60749836 69.39715915 47.9375 60.125 C44.15845839 57.93071777 40.86966799 57.81940125 36.58203125 57.68359375 C34.88784058 57.62643188 34.88784058 57.62643188 33.15942383 57.56811523 C31.72493896 57.52501221 30.2904541 57.48190918 28.8125 57.4375 C24.254375 57.293125 19.69625 57.14875 15 57 C15 71.52 15 86.04 15 101 C10.05 101 5.1 101 0 101 C0 67.67 0 34.34 0 0 Z M15 14 C15 23.57 15 33.14 15 43 C19.41247987 43.11544279 23.81962906 43.21475387 28.23242188 43.2746582 C29.72999923 43.29965007 31.22745651 43.33365627 32.72460938 43.37719727 C43.80442413 43.91180266 43.80442413 43.91180266 53.60107422 39.34863281 C56.22713965 36.81697742 57.7896272 35.26842425 58.3984375 31.59765625 C58.36258781 24.78425778 58.36258781 24.78425778 55 19 C49.9799934 14.48199406 46.26436294 13.85289832 39.70703125 13.90234375 C39.00100266 13.9037587 38.29497406 13.90517365 37.56755066 13.90663147 C35.31582374 13.91222236 33.06419679 13.92477312 30.8125 13.9375 C29.28450665 13.94251618 27.75651173 13.94707888 26.22851562 13.95117188 C22.48560772 13.9613373 18.74291557 13.98091431 15 14 Z " fill="#41368D" transform="translate(290,46)"/>
<path d="M0 0 C57.145 0 57.145 0 66 7 C72.30748271 13.81314588 73.37377615 19.21598685 73.26953125 28.41796875 C72.72448594 35.66154197 70.30568766 40.11305142 64.9375 44.9375 C62.68280055 46.76809091 60.42079124 48.38613917 58 50 C58.60328125 50.47308594 59.2065625 50.94617188 59.828125 51.43359375 C60.62734375 52.09488281 61.4265625 52.75617188 62.25 53.4375 C63.03890625 54.07558594 63.8278125 54.71367188 64.640625 55.37109375 C70.50801639 61.90876661 71.62695486 69.23464288 72.125 77.75 C72.4241552 85.64875719 72.4241552 85.64875719 75 93 C77.01735205 94.34410262 77.01735205 94.34410262 79 95 C79 96.65 79 98.3 79 100 C74.19857908 102.04060389 69.99230431 102.61600602 65 101 C61.45478631 99.05741716 58.7891894 96.81586634 57.15625 93.05859375 C56.04144841 88.60758447 55.88289168 84.12933191 55.625 79.5625 C55.12657705 72.22365172 53.75723608 65.75723608 48.4375 60.4375 C44.41208464 58.0635371 41.18201126 57.82929447 36.58203125 57.68359375 C34.88784058 57.62643188 34.88784058 57.62643188 33.15942383 57.56811523 C31.72493896 57.52501221 30.2904541 57.48190918 28.8125 57.4375 C24.254375 57.293125 19.69625 57.14875 15 57 C15 71.52 15 86.04 15 101 C10.05 101 5.1 101 0 101 C0 67.67 0 34.34 0 0 Z M15 14 C15 23.57 15 33.14 15 43 C19.41247987 43.11544279 23.81962906 43.21475387 28.23242188 43.2746582 C29.72999923 43.29965007 31.22745651 43.33365627 32.72460938 43.37719727 C43.80350639 43.86881426 43.80350639 43.86881426 53.63476562 39.30249023 C57.1229333 35.97463356 58.17521414 33.30748956 58.4375 28.5625 C58.28000175 24.05505022 56.96898798 21.46381931 54 18 C49.32490265 13.76319303 44.97375774 13.87715673 38.828125 13.90234375 C37.8044986 13.90446617 37.8044986 13.90446617 36.76019287 13.90663147 C34.59008316 13.91220916 32.4200783 13.92475746 30.25 13.9375 C28.77474108 13.94251789 27.29948053 13.94708029 25.82421875 13.95117188 C22.21607337 13.96131852 18.60815345 13.98089801 15 14 Z " fill="#40368D" transform="translate(193,46)"/>
<path d="M0 0 C5.16060268 4.19717848 8.73051847 8.75075896 10.34375 15.26953125 C10.62081374 18.3594963 10.5413474 21.15737214 10.34375 24.26953125 C5.39375 24.26953125 0.44375 24.26953125 -4.65625 24.26953125 C-4.883125 23.05265625 -5.11 21.83578125 -5.34375 20.58203125 C-6.43536291 16.26901519 -8.07838389 14.03424597 -11.65625 11.26953125 C-16.27069231 9.35917904 -20.58500836 8.88282555 -25.53125 8.89453125 C-26.23725342 8.89614258 -26.94325684 8.89775391 -27.6706543 8.89941406 C-33.44924323 9.03552215 -36.96369902 9.95714233 -41.65625 13.26953125 C-43.7614372 15.53065824 -44.5973215 16.75096046 -44.94921875 19.84765625 C-44.91441406 20.729375 -44.87960937 21.61109375 -44.84375 22.51953125 C-44.81667969 23.4115625 -44.78960937 24.30359375 -44.76171875 25.22265625 C-44.70951172 26.23585938 -44.70951172 26.23585938 -44.65625 27.26953125 C-36.0119263 31.66156638 -27.36214315 34.71990562 -18.03125 37.26953125 C-7.1448121 40.27133453 4.43516676 43.5412734 10.65625 53.76953125 C14.56993739 61.8868088 14.17128527 70.81653313 11.34375 79.26953125 C7.86149158 86.98125333 2.03530099 91.97334558 -5.78125 95.08203125 C-18.69390645 99.65410918 -36.34396056 98.99866015 -48.65625 93.26953125 C-55.36636916 89.56361576 -59.76852169 84.43854647 -62.40234375 77.2265625 C-63.67385926 72.69295201 -63.65625 69.09786369 -63.65625 64.26953125 C-58.70625 64.26953125 -53.75625 64.26953125 -48.65625 64.26953125 C-47.6796875 69.25 -47.6796875 69.25 -46.703125 74.23046875 C-45.97198008 77.33135427 -45.97198008 77.33135427 -43.74609375 78.58203125 C-43.05644531 78.80890625 -42.36679687 79.03578125 -41.65625 79.26953125 C-40.604375 79.80578125 -39.5525 80.34203125 -38.46875 80.89453125 C-29.26862484 84.2604307 -17.40685717 83.4283344 -8.5390625 79.53515625 C-5.04192769 77.18438514 -3.80531555 74.90019319 -2.84375 70.83203125 C-2.5989599 66.18101944 -3.35299444 63.78604681 -6.375 60.26953125 C-9.01072901 57.95875513 -11.15236436 57.08157632 -14.46875 55.95703125 C-15.69722656 55.53550781 -16.92570313 55.11398438 -18.19140625 54.6796875 C-21.55402848 53.59097922 -24.93993309 52.6061432 -28.33984375 51.640625 C-51.84721705 44.91770658 -51.84721705 44.91770658 -58.21875 36.01953125 C-62.01450258 28.75809152 -61.88231921 19.12376446 -59.890625 11.23828125 C-56.53390576 3.57928805 -50.58153079 -0.72307629 -42.97265625 -3.82421875 C-29.52336733 -7.85340933 -11.99681878 -7.81557459 0 0 Z " fill="#40368D" transform="translate(543.65625,50.73046875)"/>
<path d="M0 0 C1.39456452 0.00667256 2.78911118 0.01863093 4.18359375 0.03515625 C4.89451172 0.03966797 5.60542969 0.04417969 6.33789062 0.04882812 C8.09899388 0.06064761 9.86005411 0.07858362 11.62109375 0.09765625 C11.62989311 1.4682872 11.62989311 1.4682872 11.63887024 2.86660767 C11.69683488 11.48857106 11.76893335 20.11027644 11.85680866 28.73198891 C11.90148778 33.16424355 11.94074927 37.5964068 11.9675293 42.02880859 C11.9935869 46.30837067 12.03400652 50.58758058 12.08428001 54.86692429 C12.10093215 56.49749742 12.11245673 58.12813144 12.11870766 59.75877762 C12.12836698 62.04740342 12.15644655 64.33513164 12.1887207 66.62353516 C12.19982376 67.92481354 12.21092682 69.22609192 12.22236633 70.56680298 C12.83318438 75.9757837 14.58968629 79.11109259 18.49609375 82.84765625 C25.47958755 87.87577179 32.22159179 87.86642423 40.62109375 87.09765625 C46.02835865 85.56573587 49.58927 82.87860909 52.62109375 78.09765625 C54.66384968 73.93171481 54.89209929 70.44562166 54.93994141 65.82885742 C54.95500984 64.75974625 54.95500984 64.75974625 54.97038269 63.66903687 C55.00113616 61.32624069 55.01822771 58.98355839 55.03515625 56.640625 C55.05387423 55.01108323 55.07344812 53.38155108 55.09384155 51.75202942 C55.14510226 47.47284631 55.18476032 43.1936318 55.22198486 38.91430664 C55.26206259 34.54370392 55.31313772 30.17323115 55.36328125 25.80273438 C55.45996882 17.23445734 55.5433795 8.6661264 55.62109375 0.09765625 C60.57109375 0.09765625 65.52109375 0.09765625 70.62109375 0.09765625 C70.68904781 9.72099704 70.74401235 19.34417675 70.77653027 28.96770382 C70.79214239 33.43697509 70.81329864 37.90607276 70.84741211 42.37524414 C70.88016527 46.69355015 70.89798021 51.01168985 70.90572548 55.33011055 C70.91124048 56.97223081 70.92200957 58.61434265 70.93828392 60.25639153 C71.05828957 72.87404615 70.23418079 84.2675691 60.9765625 93.7890625 C51.23489017 101.97206726 38.76564303 103.07445801 26.56152344 102.2734375 C16.06338593 101.32242353 8.80348322 96.84766978 1.74609375 89.16015625 C-5.49791142 78.72026645 -4.53062042 66.44739224 -4.51171875 54.2578125 C-4.51239315 52.72464482 -4.51336432 51.19147725 -4.51461792 49.65830994 C-4.51608536 46.46189342 -4.51396906 43.26550502 -4.50927734 40.0690918 C-4.50354666 35.96428506 -4.50688602 31.85954323 -4.51284981 27.75473881 C-4.51645243 24.59701543 -4.51531881 21.43930762 -4.51272202 18.28158379 C-4.51205366 16.76685008 -4.51287798 15.25211496 -4.51520157 13.73738289 C-4.51772683 11.63095429 -4.51389092 9.52463341 -4.50830078 7.41821289 C-4.50750519 6.21878555 -4.50670959 5.01935822 -4.50588989 3.78358459 C-4.31703909 -0.21094348 -4.10541497 0.11865361 0 0 Z " fill="#443A8F" transform="translate(390.37890625,45.90234375)"/>
<path d="M0 0 C7.87475887 6.6121393 12.2346405 16.2207678 13.5625 26.3125 C13.5625 28.6225 13.5625 30.9325 13.5625 33.3125 C8.6125 33.3125 3.6625 33.3125 -1.4375 33.3125 C-1.85 31.29125 -2.2625 29.27 -2.6875 27.1875 C-4.47671565 19.48718404 -6.66932145 14.82461903 -13.4375 10.3125 C-20.45135208 7.54465738 -29.20086399 6.68158942 -36.375 9.5 C-42.89786468 13.36047093 -46.81959033 17.22400612 -49.4375 24.3125 C-50.88603407 30.26067938 -50.66077766 36.30249335 -50.67773438 42.38500977 C-50.68739143 44.47648646 -50.71843032 46.56695852 -50.75 48.65820312 C-50.82124099 57.76329027 -50.53389963 67.95477631 -44.4375 75.3125 C-36.05260666 81.48251585 -28.60003011 81.86411959 -18.4375 81.3125 C-13.37307218 80.53812266 -10.24878006 78.47714671 -7.0625 74.5 C-3.15494301 68.68631765 -2.14568974 63.15833411 -1.4375 56.3125 C3.5125 56.3125 8.4625 56.3125 13.5625 56.3125 C13.01997708 69.06178858 11.15880098 77.62764715 2.203125 87.04296875 C-8.57772735 96.30876049 -20.86637874 97.22487177 -34.4375 96.3125 C-43.48681449 94.8428543 -51.51709117 90.32351046 -57.4375 83.3125 C-65.48767907 71.99706972 -66.96011135 60.8286495 -66.88354492 47.24316406 C-66.87503763 44.9476528 -66.90388633 42.65464201 -66.93554688 40.359375 C-67.00262376 26.32821271 -64.40247164 13.94694124 -54.625 3.34765625 C-49.8245601 -1.2301826 -44.72731994 -3.69786308 -38.4375 -5.6875 C-37.84324219 -5.87957031 -37.24898437 -6.07164063 -36.63671875 -6.26953125 C-24.38294795 -8.59840066 -10.428179 -7.06361558 0 0 Z " fill="#41378D" transform="translate(106.4375,51.6875)"/>
<path d="M0 0 C1.60279192 0.00015914 3.20558896 0.00585476 4.80834961 0.01586914 C5.65038437 0.01728409 6.49241913 0.01869904 7.35997009 0.02015686 C10.06024671 0.02577276 12.76044163 0.03832791 15.46069336 0.05102539 C17.28686404 0.05603834 19.11303602 0.06060161 20.93920898 0.06469727 C25.42556878 0.07574735 29.9118672 0.0930226 34.39819336 0.11352539 C34.39819336 4.73352539 34.39819336 9.35352539 34.39819336 14.11352539 C30.43819336 14.11352539 26.47819336 14.11352539 22.39819336 14.11352539 C22.39819336 38.20352539 22.39819336 62.29352539 22.39819336 87.11352539 C26.35819336 87.11352539 30.31819336 87.11352539 34.39819336 87.11352539 C34.39819336 91.73352539 34.39819336 96.35352539 34.39819336 101.11352539 C29.00472348 101.13817389 23.61128611 101.1563607 18.21777344 101.16845703 C16.38150461 101.17349771 14.54523982 101.18033016 12.70898438 101.18896484 C10.07542935 101.20104211 7.4419272 101.2067562 4.80834961 101.21118164 C3.56928612 101.21892357 3.56928612 101.21892357 2.30519104 101.2268219 C0.33582968 101.22701744 -1.63342278 101.17556691 -3.60180664 101.11352539 C-4.60180664 100.11352539 -4.60180664 100.11352539 -4.69946289 97.17211914 C-4.68786133 95.9771582 -4.67625977 94.78219727 -4.66430664 93.55102539 C-4.6552832 92.35348633 -4.64625977 91.15594727 -4.63696289 89.92211914 C-4.62536133 88.9952832 -4.61375977 88.06844727 -4.60180664 87.11352539 C-0.64180664 87.11352539 3.31819336 87.11352539 7.39819336 87.11352539 C7.39819336 63.02352539 7.39819336 38.93352539 7.39819336 14.11352539 C3.43819336 14.11352539 -0.52180664 14.11352539 -4.60180664 14.11352539 C-4.62866602 11.96775903 -4.64813752 9.82189894 -4.66430664 7.67602539 C-4.6759082 6.48106445 -4.68750977 5.28610352 -4.69946289 4.05493164 C-4.55640718 -0.25390638 -4.42972799 0.13962065 0 0 Z " fill="#43388E" transform="translate(138.601806640625,45.886474609375)"/>
<path d="M0 0 C3.85987396 2.00141613 6.99446399 4.0944825 9 8 C10.32118526 12.83477217 10.47594285 16.76483391 8.375 21.375 C6.36456928 24.77310176 4.84600836 26.69072056 1 28 C-3.62316555 28.69526676 -7.95118908 29.05897687 -12.19921875 26.86328125 C-16.00718791 23.82169582 -18.21420215 20.91123657 -19 16 C-19.13488347 11.52186893 -18.4989156 8.18265555 -15.6875 4.625 C-10.8706781 -0.07980278 -6.58668662 -0.93768803 0 0 Z " fill="#43398F" transform="translate(631,95)"/>
<path d="M0 0 C4.79642058 2.39821029 7.60178971 5.20357942 10 10 C10.81155954 16.39103136 9.77109363 19.80200607 6 25 C2.23119582 28.43626263 -1.65892606 28.51209617 -6.5625 28.3515625 C-11.24586254 27.67607752 -13.88636623 25.29923939 -16.875 21.8125 C-18.47261366 17.81846585 -18.57229385 14.24580165 -18 10 C-16.35119358 6.29018555 -14.04854115 3.66747351 -11 1 C-7.26947433 -0.24350856 -3.87447957 -0.52198871 0 0 Z " fill="#40368D" transform="translate(710,95)"/>
<path d="M0 0 C1.04929687 0.06703125 2.09859375 0.1340625 3.1796875 0.203125 C6.37186464 0.79583694 7.87538539 1.42557636 10.125 3.75 C10.875 10.5 10.875 10.5 8.625 14.25 C8.13 14.745 7.635 15.24 7.125 15.75 C7.785 16.41 8.445 17.07 9.125 17.75 C9.92623743 24.73221191 9.92623743 24.73221191 6.8125 28.6875 C2.63211569 31.89570192 -0.42853401 31.86333135 -5.5625 31.8125 C-7.33173828 31.79896484 -7.33173828 31.79896484 -9.13671875 31.78515625 C-10.04035156 31.77355469 -10.94398438 31.76195312 -11.875 31.75 C-11.39686762 27.8957043 -10.91730822 24.04158741 -10.4375 20.1875 C-10.30279297 19.10146484 -10.16808594 18.01542969 -10.02929688 16.89648438 C-9.7665962 14.78847165 -9.50059378 12.68086722 -9.23095703 10.57373047 C-9.01568499 8.86602374 -8.8105289 7.15694131 -8.62451172 5.44580078 C-8.4414336 3.87132893 -8.16988118 2.30740948 -7.875 0.75 C-5.10970877 -0.63264561 -3.07085382 -0.225246 0 0 Z M-0.875 4.75 C-2.34547336 8.66063224 -2.34547336 8.66063224 -2.875 12.75 C-0.45880177 13.00030977 -0.45880177 13.00030977 2.125 12.75 C4.43171915 10.03450846 4.43171915 10.03450846 3.75 7.5625 C3.54375 6.964375 3.3375 6.36625 3.125 5.75 C1.805 5.42 0.485 5.09 -0.875 4.75 Z M-2.875 17.75 C-4.32024884 22.17605006 -4.32024884 22.17605006 -4.875 26.75 C-2.45854218 26.91687448 -2.45854218 26.91687448 0.125 26.75 C2.47473818 24.85244856 2.47473818 24.85244856 2.25 21.625 C2.20875 20.67625 2.1675 19.7275 2.125 18.75 C0.475 18.42 -1.175 18.09 -2.875 17.75 Z " fill="#2689DE" transform="translate(682.875,171.25)"/>
<path d="M0 0 C6.15234375 -0.09765625 6.15234375 -0.09765625 8 0 C10.2844215 2.2844215 9.76414479 7.35007612 10.0625 10.4375 C10.15337891 11.30310547 10.24425781 12.16871094 10.33789062 13.06054688 C10.93187764 19.05847588 11.10934455 24.97471015 11 31 C9.02 31 7.04 31 5 31 C4.67 28.69 4.34 26.38 4 24 C1.69 24 -0.62 24 -3 24 C-3.144375 24.969375 -3.28875 25.93875 -3.4375 26.9375 C-4 30 -4 30 -5 31 C-6.99958364 31.04080783 -9.00045254 31.04254356 -11 31 C-10.41146688 26.68033587 -9.35740427 22.97894213 -7.71484375 18.9453125 C-7.26689453 17.83671875 -6.81894531 16.728125 -6.35742188 15.5859375 C-5.88884766 14.44382813 -5.42027344 13.30171875 -4.9375 12.125 C-4.46505859 10.9596875 -3.99261719 9.794375 -3.50585938 8.59375 C-2.34267209 5.72690456 -1.17389942 2.86247193 0 0 Z M2 9 C1.01 12.3 0.02 15.6 -1 19 C0.65 19 2.3 19 4 19 C4 16.03 4 13.06 4 10 C3.34 9.67 2.68 9.34 2 9 Z " fill="#2688DE" transform="translate(741,172)"/>
<path d="M0 0 C5.28 0 10.56 0 16 0 C15.67 1.65 15.34 3.3 15 5 C12.03 5 9.06 5 6 5 C5.67 7.64 5.34 10.28 5 13 C7.31 13 9.62 13 12 13 C12 14.65 12 16.3 12 18 C9.36 18 6.72 18 4 18 C3.67 20.64 3.34 23.28 3 26 C5.97 26 8.94 26 12 26 C12 27.65 12 29.3 12 31 C6.72 31 1.44 31 -4 31 C-2.3943662 7.18309859 -2.3943662 7.18309859 0 0 Z " fill="#2789DE" transform="translate(698,172)"/>
<path d="M0 0 C3.24807785 0.69554798 4.80411173 1.89740194 6.93359375 4.4140625 C8.05698329 8.27571404 8.33966615 10.42144109 6.80859375 14.1640625 C4.64943949 16.75504762 3.05254564 18.10845473 -0.06640625 19.4140625 C-4.00018341 19.4140625 -5.73768849 18.64988176 -8.94140625 16.3515625 C-11.33138696 13.04776564 -11.82988412 11.33817607 -11.54296875 7.3515625 C-10.06571572 1.34568134 -5.60591179 -0.4026931 0 0 Z " fill="#473D91" transform="translate(668.06640625,65.5859375)"/>
<path d="M0 0 C6.6 0 13.2 0 20 0 C19.67 1.65 19.34 3.3 19 5 C16.69 5 14.38 5 12 5 C11.95101562 5.78761719 11.90203125 6.57523438 11.8515625 7.38671875 C11.30556167 15.34138596 10.32521452 23.138776 9 31 C6.69 31 4.38 31 2 31 C2.47318353 27.04092723 2.95455618 23.08289307 3.4375 19.125 C3.57220703 17.99707031 3.70691406 16.86914062 3.84570312 15.70703125 C4.04389648 14.09248047 4.04389648 14.09248047 4.24609375 12.4453125 C4.36654053 11.45031738 4.4869873 10.45532227 4.61108398 9.43017578 C5 7 5 7 6 5 C3.69 5 1.38 5 -1 5 C-0.67 3.35 -0.34 1.7 0 0 Z " fill="#2588DE" transform="translate(715,172)"/>
<path d="M0 0 C0.66 0.33 1.32 0.66 2 1 C-0.64 3.64 -3.28 6.28 -6 9 C-6 6 -6 6 -3.5625 3.375 C-2.716875 2.59125 -1.87125 1.8075 -1 1 C-0.67 0.67 -0.34 0.34 0 0 Z " fill="#7E78B2" transform="translate(493,51)"/>
</svg>
