<?xml version="1.0" encoding="UTF-8"?>
<svg version="1.1" xmlns="http://www.w3.org/2000/svg" width="194" height="128">
<path d="M0 0 C9.74348334 5.42767615 15.13576961 13.05184009 18.6015625 23.44921875 C19.56835938 23.475 20.53515625 23.50078125 21.53125 23.52734375 C33.15102519 24.03355178 41.87366571 25.82674638 50.55859375 34.03515625 C54.9108115 39.17792981 57.62335854 45.31144144 59.6171875 51.70703125 C60.37765569 54.61111023 60.37765569 54.61111023 62.9140625 56.19921875 C67.90628277 60.378752 70.21917812 65.50881472 71.0546875 71.93359375 C71.32243337 80.84570638 70.01928733 86.49185316 64.2265625 93.19921875 C58.7201616 97.91899095 54.49419211 100.56742947 47.20747375 100.58966064 C45.52738472 100.59822586 45.52738472 100.59822586 43.81335449 100.60696411 C42.58370972 100.60808197 41.35406494 100.60919983 40.0871582 100.61035156 C38.79259201 100.61531647 37.49802582 100.62028137 36.16423035 100.62539673 C32.61026569 100.63851544 29.05631992 100.64496505 25.50233483 100.64940739 C23.28023732 100.65233993 21.05814495 100.65644516 18.83605003 100.66091156 C11.87885827 100.67458722 4.92167829 100.68425264 -2.03552598 100.68811345 C-10.05721206 100.69258973 -18.07872736 100.71011723 -26.10036153 100.73911405 C-32.30601939 100.76076465 -38.51162934 100.77081959 -44.71732455 100.77215457 C-48.42096289 100.7732005 -52.12444072 100.7790625 -55.82803917 100.79697418 C-59.96448411 100.81658946 -64.10057416 100.81215247 -68.23706055 100.80566406 C-69.45658417 100.81487885 -70.67610779 100.82409363 -71.93258667 100.83358765 C-81.01697919 100.7889798 -87.98500187 99.48897374 -94.859375 93.1953125 C-99.92168948 87.45202679 -101.78719318 80.46724098 -101.67578125 72.953125 C-101.02792871 67.10420277 -99.0178086 61.5495982 -94.4609375 57.69921875 C-91.19295712 54.83770359 -90.36771323 51.80090107 -89.0859375 47.69921875 C-85.77734862 37.68888755 -79.80241352 31.08039773 -70.44140625 26.2890625 C-65.83184717 24.39411948 -61.59391582 24.325952 -56.6484375 24.38671875 C-55.95105469 24.39123047 -55.25367188 24.39574219 -54.53515625 24.40039062 C-52.82287947 24.41211855 -51.11064717 24.43005222 -49.3984375 24.44921875 C-48.97433594 23.51980469 -48.55023438 22.59039062 -48.11328125 21.6328125 C-42.69928481 10.08222511 -37.45152055 3.54860004 -25.3984375 -1.55078125 C-17.3373545 -4.23780892 -7.75591927 -3.26023155 0 0 Z M-17.3984375 9.44921875 C-17.553125 10.40828125 -17.553125 10.40828125 -17.7109375 11.38671875 C-17.9378125 12.06734375 -18.1646875 12.74796875 -18.3984375 13.44921875 C-19.3884375 13.77921875 -20.3784375 14.10921875 -21.3984375 14.44921875 C-22.0584375 13.78921875 -22.7184375 13.12921875 -23.3984375 12.44921875 C-24.3884375 12.44921875 -25.3784375 12.44921875 -26.3984375 12.44921875 C-26.0684375 14.09921875 -25.7384375 15.74921875 -25.3984375 17.44921875 C-27.47397398 18.00269515 -29.24209714 18.44921875 -31.3984375 18.44921875 C-31.2540625 19.00609375 -31.1096875 19.56296875 -30.9609375 20.13671875 C-30.37074622 22.5630607 -29.8750085 24.9982822 -29.3984375 27.44921875 C-30.7184375 27.44921875 -32.0384375 27.44921875 -33.3984375 27.44921875 C-33.3984375 28.43921875 -33.3984375 29.42921875 -33.3984375 30.44921875 C-31.7484375 30.44921875 -30.0984375 30.44921875 -28.3984375 30.44921875 C-28.5634375 31.19171875 -28.7284375 31.93421875 -28.8984375 32.69921875 C-29.51769446 35.63928453 -29.51769446 35.63928453 -29.3984375 39.44921875 C-27.7484375 39.11921875 -26.0984375 38.78921875 -24.3984375 38.44921875 C-24.3984375 40.09921875 -24.3984375 41.74921875 -24.3984375 43.44921875 C-23.4084375 43.77921875 -22.4184375 44.10921875 -21.3984375 44.44921875 C-21.0684375 43.78921875 -20.7384375 43.12921875 -20.3984375 42.44921875 C-18.3359375 41.82421875 -18.3359375 41.82421875 -16.3984375 41.44921875 C-16.0684375 42.76921875 -15.7384375 44.08921875 -15.3984375 45.44921875 C-14.4084375 45.44921875 -13.4184375 45.44921875 -12.3984375 45.44921875 C-12.0684375 44.12921875 -11.7384375 42.80921875 -11.3984375 41.44921875 C-10.8003125 41.61421875 -10.2021875 41.77921875 -9.5859375 41.94921875 C-7.28499414 42.56063115 -7.28499414 42.56063115 -4.3984375 42.44921875 C-4.3984375 40.79921875 -4.3984375 39.14921875 -4.3984375 37.44921875 C-2.7484375 37.44921875 -1.0984375 37.44921875 0.6015625 37.44921875 C0.6015625 36.12921875 0.6015625 34.80921875 0.6015625 33.44921875 C-0.0584375 33.44921875 -0.7184375 33.44921875 -1.3984375 33.44921875 C-1.0684375 32.12921875 -0.7384375 30.80921875 -0.3984375 29.44921875 C0.9215625 29.11921875 2.2415625 28.78921875 3.6015625 28.44921875 C3.1065625 26.96421875 3.1065625 26.96421875 2.6015625 25.44921875 C1.2815625 25.44921875 -0.0384375 25.44921875 -1.3984375 25.44921875 C-1.5234375 23.07421875 -1.5234375 23.07421875 -1.3984375 20.44921875 C-0.7384375 19.78921875 -0.0784375 19.12921875 0.6015625 18.44921875 C-0.0584375 17.78921875 -0.7184375 17.12921875 -1.3984375 16.44921875 C-3.50664547 16.76773645 -3.50664547 16.76773645 -5.3984375 17.44921875 C-6.3984375 15.44921875 -6.3984375 15.44921875 -6.3984375 11.44921875 C-7.3884375 11.44921875 -8.3784375 11.44921875 -9.3984375 11.44921875 C-9.7284375 12.10921875 -10.0584375 12.76921875 -10.3984375 13.44921875 C-11.3884375 13.44921875 -12.3784375 13.44921875 -13.3984375 13.44921875 C-13.7284375 12.12921875 -14.0584375 10.80921875 -14.3984375 9.44921875 C-15.3884375 9.44921875 -16.3784375 9.44921875 -17.3984375 9.44921875 Z M-57.3984375 32.44921875 C-57.7284375 34.75921875 -58.0584375 37.06921875 -58.3984375 39.44921875 C-60.5859375 40.19921875 -60.5859375 40.19921875 -63.3984375 40.44921875 C-66.2109375 38.51171875 -66.2109375 38.51171875 -68.3984375 36.44921875 C-69.3884375 37.43921875 -70.3784375 38.42921875 -71.3984375 39.44921875 C-70.7384375 41.42921875 -70.0784375 43.40921875 -69.3984375 45.44921875 C-71.97056884 47.06870886 -73.07512909 47.49330626 -76.1484375 47.07421875 C-77.2621875 46.76484375 -77.2621875 46.76484375 -78.3984375 46.44921875 C-79.0584375 47.76921875 -79.7184375 49.08921875 -80.3984375 50.44921875 C-79.7384375 50.82046875 -79.0784375 51.19171875 -78.3984375 51.57421875 C-76.3984375 53.44921875 -76.3984375 53.44921875 -76.1484375 56.63671875 C-76.2309375 57.56484375 -76.3134375 58.49296875 -76.3984375 59.44921875 C-78.7084375 59.44921875 -81.0184375 59.44921875 -83.3984375 59.44921875 C-83.3984375 61.09921875 -83.3984375 62.74921875 -83.3984375 64.44921875 C-80.7584375 64.77921875 -78.1184375 65.10921875 -75.3984375 65.44921875 C-75.1484375 67.76171875 -75.1484375 67.76171875 -75.3984375 70.44921875 C-77.3984375 72.26171875 -77.3984375 72.26171875 -79.3984375 73.44921875 C-79.0684375 75.09921875 -78.7384375 76.74921875 -78.3984375 78.44921875 C-75.7584375 77.78921875 -73.1184375 77.12921875 -70.3984375 76.44921875 C-69.23902712 79.9274499 -69.69022866 81.90817453 -70.3984375 85.44921875 C-68.56142961 86.22164144 -68.56142961 86.22164144 -66.3984375 86.44921875 C-64.58544258 85.21967859 -64.58544258 85.21967859 -63.3984375 83.44921875 C-63.3984375 82.78921875 -63.3984375 82.12921875 -63.3984375 81.44921875 C-61.7484375 82.10921875 -60.0984375 82.76921875 -58.3984375 83.44921875 C-58.0684375 85.75921875 -57.7384375 88.06921875 -57.3984375 90.44921875 C-55.7484375 90.44921875 -54.0984375 90.44921875 -52.3984375 90.44921875 C-52.0684375 87.80921875 -51.7384375 85.16921875 -51.3984375 82.44921875 C-48.4284375 81.95421875 -48.4284375 81.95421875 -45.3984375 81.44921875 C-44.9653125 82.40828125 -44.9653125 82.40828125 -44.5234375 83.38671875 C-43.57020299 85.60127954 -43.57020299 85.60127954 -41.3984375 86.44921875 C-40.4084375 85.45921875 -39.4184375 84.46921875 -38.3984375 83.44921875 C-39.0584375 81.46921875 -39.7184375 79.48921875 -40.3984375 77.44921875 C-37.07308993 76.34076956 -34.77661175 76.60467519 -31.3984375 77.44921875 C-30.7384375 76.12921875 -30.0784375 74.80921875 -29.3984375 73.44921875 C-30.0584375 73.03671875 -30.7184375 72.62421875 -31.3984375 72.19921875 C-32.0584375 71.62171875 -32.7184375 71.04421875 -33.3984375 70.44921875 C-33.3984375 69.12921875 -33.3984375 67.80921875 -33.3984375 66.44921875 C-31.0884375 65.78921875 -28.7784375 65.12921875 -26.3984375 64.44921875 C-26.3984375 62.79921875 -26.3984375 61.14921875 -26.3984375 59.44921875 C-28.3784375 59.11921875 -30.3584375 58.78921875 -32.3984375 58.44921875 C-32.8934375 55.47921875 -32.8934375 55.47921875 -33.3984375 52.44921875 C-32.4084375 51.78921875 -31.4184375 51.12921875 -30.3984375 50.44921875 C-30.8934375 48.46921875 -30.8934375 48.46921875 -31.3984375 46.44921875 C-33.7084375 46.77921875 -36.0184375 47.10921875 -38.3984375 47.44921875 C-40.01792761 44.87708741 -40.44252501 43.77252716 -40.0234375 40.69921875 C-39.8171875 39.95671875 -39.6109375 39.21421875 -39.3984375 38.44921875 C-40.7184375 37.78921875 -42.0384375 37.12921875 -43.3984375 36.44921875 C-43.7903125 37.10921875 -44.1821875 37.76921875 -44.5859375 38.44921875 C-46.3984375 40.44921875 -46.3984375 40.44921875 -49.0859375 40.69921875 C-49.8490625 40.61671875 -50.6121875 40.53421875 -51.3984375 40.44921875 C-51.7284375 37.80921875 -52.0584375 35.16921875 -52.3984375 32.44921875 C-54.0484375 32.44921875 -55.6984375 32.44921875 -57.3984375 32.44921875 Z M22.6015625 32.44921875 C21.24716582 35.1580121 21.53654799 37.45855143 21.6015625 40.44921875 C18.7890625 40.69921875 18.7890625 40.69921875 15.6015625 40.44921875 C13.7265625 38.44921875 13.7265625 38.44921875 12.6015625 36.44921875 C10.6215625 37.43921875 10.6215625 37.43921875 8.6015625 38.44921875 C8.7871875 39.56296875 8.9728125 40.67671875 9.1640625 41.82421875 C9.6015625 45.44921875 9.6015625 45.44921875 8.6015625 47.44921875 C5.9615625 47.11921875 3.3215625 46.78921875 0.6015625 46.44921875 C0.2715625 47.76921875 -0.0584375 49.08921875 -0.3984375 50.44921875 C0.9215625 51.43921875 2.2415625 52.42921875 3.6015625 53.44921875 C3.2715625 55.09921875 2.9415625 56.74921875 2.6015625 58.44921875 C0.2915625 59.10921875 -2.0184375 59.76921875 -4.3984375 60.44921875 C-4.0684375 61.76921875 -3.7384375 63.08921875 -3.3984375 64.44921875 C-1.0884375 64.77921875 1.2215625 65.10921875 3.6015625 65.44921875 C4.01333004 69.05218469 3.7551478 70.23323942 1.6015625 73.26171875 C0.9415625 73.98359375 0.2815625 74.70546875 -0.3984375 75.44921875 C0.5915625 76.43921875 1.5815625 77.42921875 2.6015625 78.44921875 C4.5815625 77.78921875 6.5615625 77.12921875 8.6015625 76.44921875 C9.71001169 79.77456632 9.44610606 82.0710445 8.6015625 85.44921875 C10.89450738 86.30896676 10.89450738 86.30896676 13.6015625 86.44921875 C14.9758916 85.15818232 16.31052607 83.82354785 17.6015625 82.44921875 C18.9215625 82.44921875 20.2415625 82.44921875 21.6015625 82.44921875 C21.5809375 83.39796875 21.5603125 84.34671875 21.5390625 85.32421875 C21.37604424 88.35588158 21.37604424 88.35588158 22.6015625 90.44921875 C23.9215625 90.44921875 25.2415625 90.44921875 26.6015625 90.44921875 C26.9315625 87.80921875 27.2615625 85.16921875 27.6015625 82.44921875 C30.3515625 82.19921875 30.3515625 82.19921875 33.6015625 82.44921875 C35.9765625 84.44921875 35.9765625 84.44921875 37.6015625 86.44921875 C38.5915625 85.78921875 39.5815625 85.12921875 40.6015625 84.44921875 C40.1065625 80.98421875 40.1065625 80.98421875 39.6015625 77.44921875 C43.07979365 76.28980837 45.06051828 76.74100991 48.6015625 77.44921875 C48.9315625 76.12921875 49.2615625 74.80921875 49.6015625 73.44921875 C48.9415625 73.05734375 48.2815625 72.66546875 47.6015625 72.26171875 C45.6015625 70.44921875 45.6015625 70.44921875 45.3515625 67.76171875 C45.4340625 66.99859375 45.5165625 66.23546875 45.6015625 65.44921875 C48.2415625 65.11921875 50.8815625 64.78921875 53.6015625 64.44921875 C53.6015625 62.79921875 53.6015625 61.14921875 53.6015625 59.44921875 C51.2915625 59.11921875 48.9815625 58.78921875 46.6015625 58.44921875 C45.9140625 56.13671875 45.9140625 56.13671875 45.6015625 53.44921875 C46.6015625 52.44921875 47.6015625 51.44921875 48.6015625 50.44921875 C48.37112386 47.79455826 48.37112386 47.79455826 47.6015625 45.44921875 C45.2915625 46.10921875 42.9815625 46.76921875 40.6015625 47.44921875 C39.4765625 45.76171875 39.4765625 45.76171875 38.6015625 43.44921875 C39.4765625 40.69921875 39.4765625 40.69921875 40.6015625 38.44921875 C38.1265625 37.45921875 38.1265625 37.45921875 35.6015625 36.44921875 C35.2096875 37.10921875 34.8178125 37.76921875 34.4140625 38.44921875 C32.6015625 40.44921875 32.6015625 40.44921875 29.9140625 40.69921875 C29.1509375 40.61671875 28.3878125 40.53421875 27.6015625 40.44921875 C27.2715625 37.80921875 26.9415625 35.16921875 26.6015625 32.44921875 C25.2815625 32.44921875 23.9615625 32.44921875 22.6015625 32.44921875 Z " fill="#41368D" transform="translate(111.3984375,18.55078125)"/>
<path d="M0 0 C3.85987396 2.00141613 6.99446399 4.0944825 9 8 C10.08979003 12.41829602 10.36162914 15.89384027 8.9375 20.25 C5.89234725 24.57215228 3.66396348 27.46560009 -1.58984375 28.51953125 C-6.53790635 28.81139228 -10.10648126 28.51167595 -14.0625 25.375 C-17.38998689 21.95973767 -18.91274996 18.89670137 -19.05859375 14.0546875 C-18.73476079 8.55997346 -16.90369878 5.81291509 -13 2 C-8.77266816 -0.54511525 -4.81916165 -0.68606121 0 0 Z " fill="#43398E" transform="translate(61,66)"/>
<path d="M0 0 C4.79642058 2.39821029 7.60178971 5.20357942 10 10 C10.81155954 16.39103136 9.77109363 19.80200607 6 25 C2.23119582 28.43626263 -1.65892606 28.51209617 -6.5625 28.3515625 C-11.24586254 27.67607752 -13.88636623 25.29923939 -16.875 21.8125 C-18.47261366 17.81846585 -18.57229385 14.24580165 -18 10 C-16.35119358 6.29018555 -14.04854115 3.66747351 -11 1 C-7.26947433 -0.24350856 -3.87447957 -0.52198871 0 0 Z " fill="#40368D" transform="translate(140,66)"/>
<path d="M0 0 C3.24807785 0.69554798 4.80411173 1.89740194 6.93359375 4.4140625 C8.05698329 8.27571404 8.33966615 10.42144109 6.80859375 14.1640625 C4.64943949 16.75504762 3.05254564 18.10845473 -0.06640625 19.4140625 C-4.00018341 19.4140625 -5.73768849 18.64988176 -8.94140625 16.3515625 C-11.33138696 13.04776564 -11.82988412 11.33817607 -11.54296875 7.3515625 C-10.06571572 1.34568134 -5.60591179 -0.4026931 0 0 Z " fill="#473D91" transform="translate(98.06640625,36.5859375)"/>
</svg>
