<?xml version="1.0" encoding="UTF-8"?>
<svg version="1.1" xmlns="http://www.w3.org/2000/svg" width="372" height="266">
<path d="M0 0 C0.74169434 0.00418945 1.48338867 0.00837891 2.24755859 0.01269531 C11.15074986 0.19538468 18.12034008 2.58130135 25.625 7.3125 C25.625 7.9725 25.625 8.6325 25.625 9.3125 C26.75421875 9.68375 26.75421875 9.68375 27.90625 10.0625 C34.77492725 13.22051253 38.48845171 21.48109307 41.77734375 27.953125 C42.71098641 30.55183545 42.78534039 32.57213692 42.625 35.3125 C43.94113281 35.26609375 45.25726563 35.2196875 46.61328125 35.171875 C59.17647739 34.86108233 69.26800133 35.36410567 79.625 43.3125 C80.615 44.034375 81.605 44.75625 82.625 45.5 C89.56703205 51.44252481 94.56444549 60.91331341 96.3125 69.8125 C98.03594556 74.40835484 100.90174405 76.7153087 104.4296875 80.0390625 C110.8917724 86.73111484 111.92996202 94.50842034 111.93969727 103.45727539 C111.70646445 114.89396376 106.40153696 121.53596304 98.625 129.3125 C97.635 129.3125 96.645 129.3125 95.625 129.3125 C95.625 129.9725 95.625 130.6325 95.625 131.3125 C86.52702346 135.58701815 77.90461823 135.88499623 68.05297852 135.83007812 C66.40581649 135.83550856 64.75865933 135.84263636 63.11151123 135.85131836 C58.667161 135.86944665 54.22318506 135.86252753 49.77882886 135.84980202 C45.10929239 135.83961791 40.43978625 135.84908279 35.77024841 135.85534668 C27.9300262 135.86260813 20.08995509 135.85307569 12.24975586 135.83398438 C3.21046535 135.81222613 -5.82846407 135.81926544 -14.86774582 135.84129 C-22.65410922 135.85949603 -30.44036449 135.86197675 -38.22674233 135.85153532 C-42.86600375 135.84532792 -47.50509597 135.84438821 -52.14434624 135.85768127 C-56.5087647 135.86931496 -60.87272194 135.86107824 -65.23709106 135.83810425 C-66.83009644 135.83285668 -68.42314125 135.83426237 -70.01613045 135.84315491 C-81.27336081 135.90015763 -93.07728593 135.390179 -101.75 127.25 C-109.7382828 119.2617172 -112.92665954 112.44990911 -113.0625 101.1875 C-112.94650656 93.83945049 -112.29243099 88.07291915 -107.375 82.3125 C-106.84777344 81.63832031 -106.32054688 80.96414062 -105.77734375 80.26953125 C-102.00714286 75.62857143 -102.00714286 75.62857143 -99.375 74.3125 C-98.74880282 72.205391 -98.19988383 70.0751375 -97.6875 67.9375 C-94.8518207 57.62402936 -90.07958532 49.62759131 -81.375 43.3125 C-80.715 43.3125 -80.055 43.3125 -79.375 43.3125 C-79.375 42.6525 -79.375 41.9925 -79.375 41.3125 C-77.62697854 40.49575204 -75.87649811 39.68426549 -74.125 38.875 C-73.15046875 38.42253906 -72.1759375 37.97007813 -71.171875 37.50390625 C-67.2710841 35.8422565 -64.06370197 35.18622499 -59.828125 35.21484375 C-58.98378906 35.21806641 -58.13945312 35.22128906 -57.26953125 35.22460938 C-55.96048828 35.23717773 -55.96048828 35.23717773 -54.625 35.25 C-53.29275391 35.25676758 -53.29275391 35.25676758 -51.93359375 35.26367188 C-49.74732671 35.275426 -47.56119821 35.29185751 -45.375 35.3125 C-44.95541016 34.16974609 -44.95541016 34.16974609 -44.52734375 33.00390625 C-39.53370275 20.14247074 -31.25846832 9.24914902 -18.58984375 3.1015625 C-12.34044133 0.875144 -6.59145859 -0.05127193 0 0 Z M-3.375 16.3125 C-3.705 18.6225 -4.035 20.9325 -4.375 23.3125 C-6.355 23.3125 -8.335 23.3125 -10.375 23.3125 C-11.035 21.9925 -11.695 20.6725 -12.375 19.3125 C-13.365 19.8075 -13.365 19.8075 -14.375 20.3125 C-14.375 22.9525 -14.375 25.5925 -14.375 28.3125 C-16.685 28.3125 -18.995 28.3125 -21.375 28.3125 C-21.705 29.3025 -22.035 30.2925 -22.375 31.3125 C-21.055 32.3025 -19.735 33.2925 -18.375 34.3125 C-19.1875 36.75 -19.1875 36.75 -20.375 39.3125 C-21.365 39.6425 -22.355 39.9725 -23.375 40.3125 C-23.045 41.3025 -22.715 42.2925 -22.375 43.3125 C-20.35991642 44.04573796 -20.35991642 44.04573796 -18.375 44.3125 C-18.045 46.2925 -17.715 48.2725 -17.375 50.3125 C-18.86 50.8075 -18.86 50.8075 -20.375 51.3125 C-20.045 52.3025 -19.715 53.2925 -19.375 54.3125 C-15.91 53.8175 -15.91 53.8175 -12.375 53.3125 C-11.33050089 56.44599732 -11.44076355 57.30218256 -12.375 60.3125 C-11.055 60.3125 -9.735 60.3125 -8.375 60.3125 C-8.045 59.6525 -7.715 58.9925 -7.375 58.3125 C-4.3125 57.6875 -4.3125 57.6875 -1.375 57.3125 C-1.045 59.2925 -0.715 61.2725 -0.375 63.3125 C0.615 63.3125 1.605 63.3125 2.625 63.3125 C2.625 61.3325 2.625 59.3525 2.625 57.3125 C4.605 56.6525 6.585 55.9925 8.625 55.3125 C9.285 56.6325 9.945 57.9525 10.625 59.3125 C11.615 58.9825 12.605 58.6525 13.625 58.3125 C13.13 55.3425 13.13 55.3425 12.625 52.3125 C15.38764289 51.71517181 17.78532769 51.3125 20.625 51.3125 C20.27713292 49.33713255 20.27713292 49.33713255 19.625 47.3125 C18.965 46.9825 18.305 46.6525 17.625 46.3125 C17 43.75 17 43.75 16.625 41.3125 C18.935 40.9825 21.245 40.6525 23.625 40.3125 C23.625 39.3225 23.625 38.3325 23.625 37.3125 C21.645 36.9825 19.665 36.6525 17.625 36.3125 C16.9375 34.0625 16.9375 34.0625 16.625 31.3125 C18.0625 29 18.0625 29 19.625 27.3125 C18.965 26.6525 18.305 25.9925 17.625 25.3125 C15.645 26.3025 13.665 27.2925 11.625 28.3125 C10.78045644 24.93432575 10.51655081 22.63784757 11.625 19.3125 C10.635 18.9825 9.645 18.6525 8.625 18.3125 C7.635 19.6325 6.645 20.9525 5.625 22.3125 C2.655 21.8175 2.655 21.8175 -0.375 21.3125 C-0.375 19.6625 -0.375 18.0125 -0.375 16.3125 C-1.365 16.3125 -2.355 16.3125 -3.375 16.3125 Z M-55.375 46.3125 C-55.705 49.9425 -56.035 53.5725 -56.375 57.3125 C-59.5625 57.6875 -59.5625 57.6875 -63.375 57.3125 C-65.5153498 55.50061972 -66.76488302 53.65448833 -68.375 51.3125 C-70.025 52.3025 -71.675 53.2925 -73.375 54.3125 C-72.385 57.2825 -71.395 60.2525 -70.375 63.3125 C-71.365 64.3025 -72.355 65.2925 -73.375 66.3125 C-75.63671875 66.16796875 -75.63671875 66.16796875 -78.0625 65.5 C-78.87074219 65.28730469 -79.67898437 65.07460937 -80.51171875 64.85546875 C-81.12660156 64.67628906 -81.74148437 64.49710938 -82.375 64.3125 C-83.365 66.7875 -83.365 66.7875 -84.375 69.3125 C-81.70252366 71.65537418 -81.70252366 71.65537418 -78.375 72.3125 C-78.705 74.9525 -79.035 77.5925 -79.375 80.3125 C-83.83 80.8075 -83.83 80.8075 -88.375 81.3125 C-88.375 83.2925 -88.375 85.2725 -88.375 87.3125 C-85.405 87.6425 -82.435 87.9725 -79.375 88.3125 C-78.5 91.5 -78.5 91.5 -78.375 95.3125 C-80.15525903 97.52549892 -81.98137719 98.70046831 -84.375 100.3125 C-83.715 101.9625 -83.055 103.6125 -82.375 105.3125 C-78.745 104.3225 -75.115 103.3325 -71.375 102.3125 C-71.375 102.9725 -71.375 103.6325 -71.375 104.3125 C-70.715 104.3125 -70.055 104.3125 -69.375 104.3125 C-70.365 107.6125 -71.355 110.9125 -72.375 114.3125 C-70.725 114.9725 -69.075 115.6325 -67.375 116.3125 C-66.859375 115.508125 -66.34375 114.70375 -65.8125 113.875 C-62.74294243 110.64802922 -60.72631541 110.56353743 -56.375 110.3125 C-55.88 115.2625 -55.88 115.2625 -55.375 120.3125 C-53.395 120.3125 -51.415 120.3125 -49.375 120.3125 C-49.045 117.0125 -48.715 113.7125 -48.375 110.3125 C-43.09002591 109.87208549 -43.09002591 109.87208549 -40.375 110.3125 C-37.875 112.8125 -37.875 112.8125 -36.375 115.3125 C-33.9 114.3225 -33.9 114.3225 -31.375 113.3125 C-31.54257813 112.68601562 -31.71015625 112.05953125 -31.8828125 111.4140625 C-32.08648437 110.59679687 -32.29015625 109.77953125 -32.5 108.9375 C-32.70882812 108.12539062 -32.91765625 107.31328125 -33.1328125 106.4765625 C-33.21273437 105.76242188 -33.29265625 105.04828125 -33.375 104.3125 C-32.715 103.6525 -32.055 102.9925 -31.375 102.3125 C-29.36444339 102.57474651 -27.36321313 102.91485737 -25.375 103.3125 C-24.055 103.3125 -22.735 103.3125 -21.375 103.3125 C-20.715 101.9925 -20.055 100.6725 -19.375 99.3125 C-21.355 97.9925 -23.335 96.6725 -25.375 95.3125 C-25.045 93.0025 -24.715 90.6925 -24.375 88.3125 C-19.92 87.8175 -19.92 87.8175 -15.375 87.3125 C-15.375 85.3325 -15.375 83.3525 -15.375 81.3125 C-18.345 80.9825 -21.315 80.6525 -24.375 80.3125 C-25.035 77.6725 -25.695 75.0325 -26.375 72.3125 C-25.75625 72.065 -25.1375 71.8175 -24.5 71.5625 C-22.02431313 70.10621361 -21.42374998 68.93437494 -20.375 66.3125 C-21.365 65.3225 -22.355 64.3325 -23.375 63.3125 C-23.931875 63.663125 -24.48875 64.01375 -25.0625 64.375 C-28.81818137 65.89757353 -31.6582512 64.55141627 -35.375 63.3125 C-34.88 62.219375 -34.385 61.12625 -33.875 60 C-32.18660094 56.51283755 -32.18660094 56.51283755 -32.375 53.3125 C-33.695 52.6525 -35.015 51.9925 -36.375 51.3125 C-37.055625 52.323125 -37.73625 53.33375 -38.4375 54.375 C-39.796875 56.04296875 -39.796875 56.04296875 -41.375 57.3125 C-45.1875 57.1875 -45.1875 57.1875 -48.375 56.3125 C-48.705 53.0125 -49.035 49.7125 -49.375 46.3125 C-51.355 46.3125 -53.335 46.3125 -55.375 46.3125 Z M48.625 46.3125 C48.52703125 46.93898437 48.4290625 47.56546875 48.328125 48.2109375 C48.17859375 49.02820313 48.0290625 49.84546875 47.875 50.6875 C47.73578125 51.49960938 47.5965625 52.31171875 47.453125 53.1484375 C46.625 55.3125 46.625 55.3125 44.734375 56.6015625 C42.625 57.3125 42.625 57.3125 39.625 57.3125 C37.7000353 55.49056158 36.24964469 53.42014717 34.625 51.3125 C32.645 52.3025 32.645 52.3025 30.625 53.3125 C30.769375 53.84875 30.91375 54.385 31.0625 54.9375 C31.248125 55.72125 31.43375 56.505 31.625 57.3125 C31.8725 58.323125 32.12 59.33375 32.375 60.375 C32.625 63.3125 32.625 63.3125 31.43359375 65.046875 C29.625 66.3125 29.625 66.3125 27.36328125 66.16796875 C26.56277344 65.94753906 25.76226562 65.72710937 24.9375 65.5 C24.12925781 65.28730469 23.32101563 65.07460937 22.48828125 64.85546875 C21.87339844 64.67628906 21.25851563 64.49710938 20.625 64.3125 C19.965 65.6325 19.305 66.9525 18.625 68.3125 C19.91465176 69.68812854 21.25189293 71.02016393 22.625 72.3125 C23.285 72.3125 23.945 72.3125 24.625 72.3125 C24.625 74.9525 24.625 77.5925 24.625 80.3125 C19.675 80.8075 19.675 80.8075 14.625 81.3125 C14.625 83.2925 14.625 85.2725 14.625 87.3125 C17.925 87.6425 21.225 87.9725 24.625 88.3125 C24.9375 91.5625 24.9375 91.5625 24.625 95.3125 C22.125 97.75 22.125 97.75 19.625 99.3125 C19.955 101.2925 20.285 103.2725 20.625 105.3125 C21.9553125 104.8175 21.9553125 104.8175 23.3125 104.3125 C26.33423347 103.40027857 28.50873706 103.12919042 31.625 103.3125 C32.88764601 107.60549643 32.25450412 110.19081311 30.625 114.3125 C32.275 114.9725 33.925 115.6325 35.625 116.3125 C36.140625 115.4875 36.65625 114.6625 37.1875 113.8125 C39.625 111.3125 39.625 111.3125 43.375 111 C44.4475 111.103125 45.52 111.20625 46.625 111.3125 C46.85286458 113.36328125 47.08072917 115.4140625 47.30859375 117.46484375 C47.44386614 119.32390229 47.44386614 119.32390229 48.625 120.3125 C50.29117115 120.35313832 51.95888095 120.355221 53.625 120.3125 C54.285 117.3425 54.945 114.3725 55.625 111.3125 C58.265 110.6525 60.905 109.9925 63.625 109.3125 C63.8725 110.116875 64.12 110.92125 64.375 111.75 C65.35613758 114.44168473 65.35613758 114.44168473 67.625 115.25 C68.285 115.270625 68.945 115.29125 69.625 115.3125 C70.285 114.6525 70.945 113.9925 71.625 113.3125 C71.29584789 110.81094398 70.69321192 108.52953792 69.9375 106.125 C69.834375 105.526875 69.73125 104.92875 69.625 104.3125 C70.285 103.6525 70.945 102.9925 71.625 102.3125 C75.0367126 102.68333833 78.31401795 103.42108176 81.625 104.3125 C82.285 102.6625 82.945 101.0125 83.625 99.3125 C80.53172105 96.33574541 80.53172105 96.33574541 76.625 95.3125 C76.955 93.0025 77.285 90.6925 77.625 88.3125 C81.255 87.9825 84.885 87.6525 88.625 87.3125 C88.625 85.3325 88.625 83.3525 88.625 81.3125 C85.325 80.6525 82.025 79.9925 78.625 79.3125 C78.13 76.3425 78.13 76.3425 77.625 73.3125 C79.275 71.9925 80.925 70.6725 82.625 69.3125 C81.635 66.3425 81.635 66.3425 80.625 63.3125 C79.903125 63.663125 79.18125 64.01375 78.4375 64.375 C75.29517428 65.42244191 73.75181731 65.2679164 70.625 64.3125 C70.295 63.9825 69.965 63.6525 69.625 63.3125 C69.92800475 60.97503478 70.26358045 58.64164823 70.625 56.3125 C70.625 55.3225 70.625 54.3325 70.625 53.3125 C68.15 52.3225 68.15 52.3225 65.625 51.3125 C63.645 54.2825 63.645 54.2825 61.625 57.3125 C59.315 56.9825 57.005 56.6525 54.625 56.3125 C54.645625 55.219375 54.66625 54.12625 54.6875 53 C54.81044452 49.36865809 54.81044452 49.36865809 53.625 46.3125 C51.975 46.3125 50.325 46.3125 48.625 46.3125 Z " fill="#42388E" transform="translate(186.375,56.6875)"/>
<path d="M0 0 C5.7529902 3.97230276 9.10776093 7.97137739 10.625 14.8125 C10.5 17.8125 10.5 17.8125 9.625 20.8125 C9.46 21.451875 9.295 22.09125 9.125 22.75 C7.43090563 28.34051143 4.48876641 31.61788979 -0.375 34.8125 C-5.88125073 36.64791691 -12.3124918 36.95662545 -17.80078125 34.90625 C-22.26524834 32.2830603 -24.84134494 29.394874 -27.375 24.8125 C-28.34885973 18.58651402 -28.90964169 11.13664467 -25.375 5.625 C-18.64112996 -1.67316083 -9.24091473 -3.25143296 0 0 Z " fill="#443A8F" transform="translate(143.375,123.1875)"/>
<path d="M0 0 C3.76348155 3.60170294 6.76857544 6.87307745 7.16796875 12.26953125 C7.20631579 17.26231585 6.9716582 21.31731177 5 26 C4.34 26 3.68 26 3 26 C2.7215625 26.86625 2.7215625 26.86625 2.4375 27.75 C0.30217775 31.09224352 -2.33516035 32.71959257 -6 34 C-11.17870363 34.76045575 -16.14831098 34.83122704 -20.875 32.375 C-25.08732718 29.17363134 -28.28729746 26.13810761 -30 21 C-30.5116518 14.7322654 -30.68819272 9.34152049 -27 4 C-19.83678077 -4.29425384 -9.51499509 -5.67240092 0 0 Z " fill="#453B90" transform="translate(249,125)"/>
<path d="M0 0 C59.73 0 119.46 0 181 0 C176.55324753 2.96450165 173.51079078 3.12659677 168.26371765 3.13371277 C167.57526742 3.13597833 166.88681719 3.13824388 166.17750484 3.14057809 C163.86530854 3.14691979 161.55317084 3.14608861 159.2409668 3.14526367 C157.58525517 3.14825509 155.92954424 3.15165758 154.27383423 3.15544128 C149.77168276 3.16428808 145.26955029 3.16661971 140.76739097 3.16725707 C137.00998763 3.16820594 133.25258873 3.17188405 129.4951871 3.17542917 C120.629683 3.18357661 111.76418906 3.18601317 102.89868164 3.18530273 C93.75274631 3.18470212 84.60687 3.19524994 75.4609496 3.2110464 C67.6103267 3.22412263 59.75972309 3.22948658 51.90908939 3.22884732 C47.21963701 3.22859233 42.53023705 3.23144451 37.84079552 3.24202538 C33.42903401 3.25170751 29.01737501 3.25178473 24.60560989 3.24450874 C22.98750598 3.24346299 21.36939568 3.24582526 19.75130272 3.2518692 C17.53982587 3.25959361 15.32870258 3.25494148 13.11723328 3.24723816 C11.88039638 3.24778293 10.64355947 3.24832769 9.36924267 3.24888897 C5.93768635 2.99539683 3.19964839 2.23287397 0 1 C0 0.67 0 0.34 0 0 Z " fill="#9E99C5" transform="translate(96,189)"/>
<path d="M0 0 C4.33195741 2.39640197 6.38845508 5.34442579 8 10 C8.20905362 14.25633168 7.46779126 17.23148579 5.25 20.875 C2.20347804 23.75227074 0.10524148 24.96932253 -4.14453125 25.03125 C-9.2251881 24.69422467 -12.38849689 23.83038209 -16 20 C-18.23718343 17.01708876 -18.53023303 13.80194362 -18.4609375 10.1015625 C-17.60803882 6.21292275 -14.90176501 3.59354645 -12 1 C-8.29278333 -0.85360833 -4.04645862 -0.45315231 0 0 Z " fill="#493F92" transform="translate(191,84)"/>
<path d="M0 0 C0.33 0.66 0.66 1.32 1 2 C0.525625 3.19625 0.05125 4.3925 -0.4375 5.625 C-4.06607796 15.99236561 -2.61350304 27.84777717 1 38 C-2.52535053 34.97827097 -4.65327618 31.42546153 -5.31640625 26.78662109 C-5.47565996 24.24519735 -5.51703218 21.73381082 -5.5 19.1875 C-5.49935547 18.29836914 -5.49871094 17.40923828 -5.49804688 16.49316406 C-5.35049644 10.02712328 -4.34554241 5.02841336 0 0 Z " fill="#A7A2CA" transform="translate(79,139)"/>
<path d="M0 0 C0.66 0.33 1.32 0.66 2 1 C1.01 3.31 0.02 5.62 -1 8 C-1.99 8 -2.98 8 -4 8 C-3.91284983 9.93833996 -3.80467036 11.8757429 -3.6875 13.8125 C-3.62949219 14.89144531 -3.57148437 15.97039062 -3.51171875 17.08203125 C-2.95329716 20.26631315 -2.37474474 20.9715722 0 23 C0.6875 25.6875 0.6875 25.6875 1 28 C0.34 28 -0.32 28 -1 28 C-5.68402373 22.31788524 -5.63359685 17.70312626 -5.47265625 10.59375 C-4.8260637 5.67750914 -3.41833102 3.50378929 0 0 Z " fill="#B5B2D3" transform="translate(121,126)"/>
<path d="M0 0 C1.32 0 2.64 0 4 0 C4.93065133 2.60582371 5.14917407 3.64198224 4.0625 6.25 C3.711875 6.8275 3.36125 7.405 3 8 C0.69 7.67 -1.62 7.34 -4 7 C-3.67 8.98 -3.34 10.96 -3 13 C-4.65 13.33 -6.3 13.66 -8 14 C-8 13.01 -8 12.02 -8 11 C-7.01 11 -6.02 11 -5 11 C-5.309375 9.824375 -5.309375 9.824375 -5.625 8.625 C-5.74875 7.75875 -5.8725 6.8925 -6 6 C-5.34 5.34 -4.68 4.68 -4 4 C-0.875 4.375 -0.875 4.375 2 5 C2 4.01 2 3.02 2 2 C1.34 1.34 0.68 0.68 0 0 Z " fill="#A49FC8" transform="translate(204,103)"/>
<path d="M0 0 C4.90034191 4.90034191 5.24308562 10.88449391 5.375 17.5 C5.26938855 23.37317032 4.57600086 27.74066491 2 33 C1.67 33 1.34 33 1 33 C0.83998377 30.19971605 0.87457974 28.29297776 1.98828125 25.69140625 C3.93450622 20.51399697 3.95371367 14.09819122 2.32421875 8.8046875 C1.58511692 7.18636975 0.79564111 5.59128222 0 4 C0 2.68 0 1.36 0 0 Z " fill="#B3AFD2" transform="translate(293,141)"/>
<path d="M0 0 C0 1.99900708 -0.03514309 3.99832409 -0.10546875 5.99609375 C-0.13253906 7.13175781 -0.15960938 8.26742187 -0.1875 9.4375 C-0.22230469 10.57058594 -0.25710937 11.70367187 -0.29296875 12.87109375 C0.02427759 16.25928471 0.70987222 17.55359053 3 20 C0.3754772 19.00449135 -0.95028727 18.06036546 -2.75 15.875 C-4.3734238 12.14112526 -4.76845144 9.01212543 -4 5 C-2 2 -2 2 0 0 Z " fill="#A49FC8" transform="translate(177,87)"/>
<path d="M0 0 C-0.33 0.66 -0.66 1.32 -1 2 C-3.31 2 -5.62 2 -8 2 C-8.33 4.97 -8.66 7.94 -9 11 C-11.64 11 -14.28 11 -17 11 C-17 8.36 -17 5.72 -17 3 C-16.67 3 -16.34 3 -16 3 C-16 5.31 -16 7.62 -16 10 C-14.02 10 -12.04 10 -10 10 C-9.67 6.7 -9.34 3.4 -9 0 C-5.62182575 -0.84454356 -3.32534757 -1.10844919 0 0 Z " fill="#B6B2D3" transform="translate(147,167)"/>
<path d="M0 0 C2.33294775 -0.04241723 4.66702567 -0.04092937 7 0 C9.04698414 2.04698414 8.70045693 6.30411241 9 9 C10.65 9.33 12.3 9.66 14 10 C14.33 9.34 14.66 8.68 15 8 C15 8.99 15 9.98 15 11 C12.36 11 9.72 11 7 11 C6.67 8.03 6.34 5.06 6 2 C2.37114676 1.84850702 2.37114676 1.84850702 -1 3 C-0.67 2.01 -0.34 1.02 0 0 Z " fill="#B6B2D3" transform="translate(226,167)"/>
<path d="M0 0 C2.475 0.495 2.475 0.495 5 1 C5.125 7.625 5.125 7.625 4 11 C1.9375 11.6875 1.9375 11.6875 0 12 C0.60990891 8.44219804 1.5783681 5.3171411 3 2 C2.01 1.67 1.02 1.34 0 1 C0 0.67 0 0.34 0 0 Z " fill="#918BBD" transform="translate(151,108)"/>
<path d="M0 0 C1.65 0 3.3 0 5 0 C5 0.66 5 1.32 5 2 C5.66 2 6.32 2 7 2 C7 2.99 7 3.98 7 5 C8.32 5 9.64 5 11 5 C10.67 5.99 10.34 6.98 10 8 C8.02 7.34 6.04 6.68 4 6 C4 4.35 4 2.7 4 1 C3.01 1 2.02 1 1 1 C1 2.65 1 4.3 1 6 C0.67 6 0.34 6 0 6 C0 4.02 0 2.04 0 0 Z " fill="#D2D0E4" transform="translate(182,72)"/>
<path d="M0 0 C0.91007813 0.00902344 1.82015625 0.01804687 2.7578125 0.02734375 C3.45648438 0.03894531 4.15515625 0.05054687 4.875 0.0625 C5.205 1.0525 5.535 2.0425 5.875 3.0625 C4.27120659 3.11666188 2.66688594 3.15536638 1.0625 3.1875 C0.16917969 3.21070312 -0.72414062 3.23390625 -1.64453125 3.2578125 C-4.125 3.0625 -4.125 3.0625 -7.125 1.0625 C-4.60024538 -0.19987731 -2.81299534 -0.03606404 0 0 Z " fill="#756DAC" transform="translate(237.125,121.9375)"/>
<path d="M0 0 C0.66 0.33 1.32 0.66 2 1 C1.07347299 2.17539996 0.13336613 3.34010577 -0.8125 4.5 C-1.33457031 5.1496875 -1.85664062 5.799375 -2.39453125 6.46875 C-4 8 -4 8 -7 8 C-5.61918777 3.8575633 -3.40174442 2.67796901 0 0 Z " fill="#9993C2" transform="translate(105,100)"/>
<path d="M0 0 C0.66 0 1.32 0 2 0 C2 0.99 2 1.98 2 3 C3.32 3 4.64 3 6 3 C5.67 3.99 5.34 4.98 5 6 C3.68 5.67 2.36 5.34 1 5 C0.67 3.35 0.34 1.7 0 0 Z " fill="#928CBE" transform="translate(187,74)"/>
</svg>
